####
#
# OBJ File Generated by Meshlab
#
####
# Object Cone_00005.obj
#
# Vertices: 135
# Faces: 136
#
####
mtllib ./Cone_00005.obj.mtl

vn -0.000000 -9.816966 0.000000
v 0.000000 -0.010000 0.000000
vn 1.334147 0.276950 0.000000
v 0.040000 0.010000 0.000000
vn 1.313878 -2.668294 0.231672
v 0.039392 0.010000 0.006946
vn 1.253688 -2.668294 0.456305
v 0.037588 0.010000 0.013681
vn 1.155405 -2.668293 0.667073
v 0.034641 0.010000 0.020000
vn 1.022016 -2.668293 0.857573
v 0.030642 0.010000 0.025712
vn 0.857573 -2.668293 1.022016
v 0.025712 0.010000 0.030642
vn 0.667073 -2.668293 1.155405
v 0.020000 0.010000 0.034641
vn 0.456305 -2.668294 1.253688
v 0.013681 0.010000 0.037588
vn 0.231672 -2.668294 1.313878
v 0.006946 0.010000 0.039392
vn 0.000000 -2.668293 1.334147
v 0.000000 0.010000 0.040000
vn -0.231672 -2.668294 1.313878
v -0.006946 0.010000 0.039392
vn -0.456305 -2.668294 1.253688
v -0.013681 0.010000 0.037588
vn -0.667073 -2.668293 1.155405
v -0.020000 0.010000 0.034641
vn -0.857573 -2.668293 1.022016
v -0.025712 0.010000 0.030642
vn -1.022016 -2.668293 0.857573
v -0.030642 0.010000 0.025712
vn -1.155405 -2.668293 0.667073
v -0.034641 0.010000 0.020000
vn -1.253688 -2.668294 0.456305
v -0.037588 0.010000 0.013681
vn -1.313878 -2.668294 0.231672
v -0.039392 0.010000 0.006946
vn -1.334147 -2.668293 0.000000
v -0.040000 0.010000 0.000000
vn -1.313878 -2.668294 -0.231672
v -0.039392 0.010000 -0.006946
vn -1.253688 -2.668294 -0.456305
v -0.037588 0.010000 -0.013681
vn -1.155405 -2.668293 -0.667073
v -0.034641 0.010000 -0.020000
vn -1.022016 -2.668293 -0.857573
v -0.030642 0.010000 -0.025712
vn -0.857573 -2.668293 -1.022016
v -0.025712 0.010000 -0.030642
vn -0.667073 -2.668293 -1.155405
v -0.020000 0.010000 -0.034641
vn -0.456305 -2.668294 -1.253688
v -0.013681 0.010000 -0.037588
vn -0.231672 -2.668294 -1.313878
v -0.006946 0.010000 -0.039392
vn 0.000000 -2.668293 -1.334147
v -0.000000 0.010000 -0.040000
vn 0.231672 -2.668294 -1.313878
v 0.006946 0.010000 -0.039392
vn 0.456305 -2.668294 -1.253688
v 0.013681 0.010000 -0.037588
vn 0.667073 -2.668293 -1.155405
v 0.020000 0.010000 -0.034641
vn 0.857573 -2.668293 -1.022016
v 0.025712 0.010000 -0.030642
vn 1.022016 -2.668293 -0.857573
v 0.030642 0.010000 -0.025712
vn 1.155405 -2.668293 -0.667073
v 0.034641 0.010000 -0.020000
vn 1.253688 -2.668294 -0.456305
v 0.037588 0.010000 -0.013681
vn 1.313878 -2.668294 -0.231672
v 0.039392 0.010000 -0.006946
vn 1.450312 0.727381 0.000000
v 0.036000 0.010000 0.000000
vn 1.428278 -2.610561 0.251844
v 0.035453 0.010000 0.006251
vn 1.362848 -2.610561 0.496036
v 0.033829 0.010000 0.012313
vn 1.256007 -2.610561 0.725156
v 0.031177 0.010000 0.018000
vn 1.111003 -2.610561 0.932243
v 0.027578 0.010000 0.023140
vn 0.932243 -2.610561 1.111003
v 0.023140 0.010000 0.027578
vn 0.725156 -2.610561 1.256007
v 0.018000 0.010000 0.031177
vn 0.496036 -2.610561 1.362848
v 0.012313 0.010000 0.033829
vn 0.251844 -2.610561 1.428278
v 0.006251 0.010000 0.035453
vn 0.000000 -2.610561 1.450312
v 0.000000 0.010000 0.036000
vn -0.251844 -2.610561 1.428278
v -0.006251 0.010000 0.035453
vn -0.496036 -2.610561 1.362848
v -0.012313 0.010000 0.033829
vn -0.725156 -2.610561 1.256007
v -0.018000 0.010000 0.031177
vn -0.932243 -2.610561 1.111003
v -0.023140 0.010000 0.027578
vn -1.111003 -2.610561 0.932243
v -0.027578 0.010000 0.023140
vn -1.256007 -2.610561 0.725156
v -0.031177 0.010000 0.018000
vn -1.362848 -2.610561 0.496036
v -0.033829 0.010000 0.012313
vn -1.428278 -2.610561 0.251844
v -0.035453 0.010000 0.006251
vn -1.450312 -2.610561 0.000000
v -0.036000 0.010000 0.000000
vn -1.428278 -2.610561 -0.251844
v -0.035453 0.010000 -0.006251
vn -1.362848 -2.610561 -0.496036
v -0.033829 0.010000 -0.012313
vn -1.256007 -2.610561 -0.725156
v -0.031177 0.010000 -0.018000
vn -1.111003 -2.610561 -0.932243
v -0.027578 0.010000 -0.023140
vn -0.932243 -2.610561 -1.111003
v -0.023140 0.010000 -0.027578
vn -0.725156 -2.610561 -1.256007
v -0.018000 0.010000 -0.031177
vn -0.496036 -2.610561 -1.362848
v -0.012313 0.010000 -0.033829
vn -0.251844 -2.610561 -1.428278
v -0.006251 0.010000 -0.035453
vn 0.000000 -2.610561 -1.450312
v -0.000000 0.010000 -0.036000
vn 0.251844 -2.610561 -1.428278
v 0.006251 0.010000 -0.035453
vn 0.496036 -2.610561 -1.362848
v 0.012313 0.010000 -0.033829
vn 0.725156 -2.610561 -1.256007
v 0.018000 0.010000 -0.031177
vn 0.932243 -2.610561 -1.111003
v 0.023140 0.010000 -0.027578
vn 1.111003 -2.610561 -0.932243
v 0.027578 0.010000 -0.023140
vn 1.256007 -2.610561 -0.725156
v 0.031177 0.010000 -0.018000
vn 1.362848 -2.610561 -0.496036
v 0.033829 0.010000 -0.012313
vn 1.428278 -2.610561 -0.251844
v 0.035453 0.010000 -0.006251
vn -0.000000 2.945243 -0.000000
v 0.039231 0.010000 -0.007804
vn -0.000000 3.337942 -0.000000
v 0.035308 0.010000 -0.007023
vn -0.000000 2.945244 -0.000000
v 0.036955 0.010000 -0.015307
vn -0.000000 3.337942 -0.000000
v 0.033260 0.010000 -0.013777
vn 0.000000 2.945242 0.000000
v 0.033259 0.010000 -0.022223
vn 0.000000 3.337943 0.000000
v 0.029933 0.010000 -0.020001
vn 0.000000 2.945243 -0.000000
v 0.028284 0.010000 -0.028284
vn 0.000000 3.337942 0.000000
v 0.025456 0.010000 -0.025456
vn 0.000000 2.945242 -0.000001
v 0.022223 0.010000 -0.033259
vn 0.000000 3.337943 -0.000001
v 0.020001 0.010000 -0.029933
vn 0.000000 2.945244 0.000000
v 0.015307 0.010000 -0.036955
vn 0.000000 3.337942 -0.000000
v 0.013777 0.010000 -0.033260
vn 0.000000 2.945243 0.000000
v 0.007804 0.010000 -0.039231
vn 0.000000 3.337942 0.000000
v 0.007023 0.010000 -0.035308
vn 0.000000 2.945243 0.000000
v 0.000000 0.010000 -0.040000
vn 0.000000 3.337943 0.000000
v 0.000000 0.010000 -0.036000
vn 0.000000 2.945243 0.000000
v -0.007804 0.010000 -0.039231
vn 0.000000 3.337942 0.000000
v -0.007023 0.010000 -0.035308
vn 0.000000 2.945244 -0.000000
v -0.015307 0.010000 -0.036955
vn 0.000000 3.337942 -0.000000
v -0.013777 0.010000 -0.033260
vn -0.000000 2.945242 -0.000001
v -0.022223 0.010000 -0.033259
vn -0.000000 3.337943 -0.000001
v -0.020001 0.010000 -0.029933
vn 0.000000 2.945243 -0.000000
v -0.028284 0.010000 -0.028284
vn 0.000000 3.337942 -0.000000
v -0.025456 0.010000 -0.025456
vn 0.000000 2.945242 0.000000
v -0.033259 0.010000 -0.022223
vn 0.000000 3.337943 0.000000
v -0.029933 0.010000 -0.020001
vn 0.000000 2.945244 -0.000000
v -0.036955 0.010000 -0.015307
vn 0.000000 3.337942 -0.000000
v -0.033260 0.010000 -0.013777
vn 0.000000 2.945243 -0.000000
v -0.039231 0.010000 -0.007804
vn 0.000000 3.337942 -0.000000
v -0.035308 0.010000 -0.007023
vn 0.000000 2.945243 0.000000
v -0.040000 0.010000 -0.000000
vn 0.000000 3.337943 0.000000
v -0.036000 0.010000 -0.000000
vn -0.000000 2.945243 -0.000000
v -0.039231 0.010000 0.007804
vn -0.000000 3.337942 -0.000000
v -0.035308 0.010000 0.007023
vn -0.000000 2.945244 -0.000000
v -0.036955 0.010000 0.015307
vn -0.000000 3.337942 -0.000000
v -0.033260 0.010000 0.013777
vn 0.000000 2.945242 0.000000
v -0.033259 0.010000 0.022223
vn 0.000000 3.337943 0.000000
v -0.029933 0.010000 0.020001
vn 0.000000 2.945243 -0.000000
v -0.028284 0.010000 0.028284
vn 0.000000 3.337942 0.000000
v -0.025456 0.010000 0.025456
vn 0.000000 2.945242 -0.000001
v -0.022223 0.010000 0.033259
vn 0.000000 3.337943 -0.000001
v -0.020001 0.010000 0.029933
vn 0.000000 2.945244 0.000000
v -0.015307 0.010000 0.036955
vn 0.000000 3.337942 -0.000000
v -0.013777 0.010000 0.033260
vn 0.000000 2.945243 0.000000
v -0.007804 0.010000 0.039231
vn 0.000000 3.337942 0.000000
v -0.007023 0.010000 0.035308
vn 0.000000 2.945243 0.000000
v -0.000000 0.010000 0.040000
vn 0.000000 3.337943 0.000000
v -0.000000 0.010000 0.036000
vn 0.000000 2.945243 0.000000
v 0.007804 0.010000 0.039231
vn 0.000000 3.337942 0.000000
v 0.007023 0.010000 0.035308
vn 0.000000 2.945244 -0.000000
v 0.015307 0.010000 0.036955
vn 0.000000 3.337942 -0.000000
v 0.013777 0.010000 0.033260
vn -0.000000 2.945242 -0.000001
v 0.022223 0.010000 0.033259
vn -0.000000 3.337943 -0.000001
v 0.020001 0.010000 0.029933
vn 0.000000 2.945243 -0.000000
v 0.028284 0.010000 0.028284
vn 0.000000 3.337942 -0.000000
v 0.025456 0.010000 0.025456
vn 0.000000 2.945242 0.000000
v 0.033259 0.010000 0.022223
vn 0.000000 3.337943 0.000000
v 0.029933 0.010000 0.020001
vn 0.000000 2.945244 -0.000000
v 0.036955 0.010000 0.015307
vn 0.000000 3.337942 -0.000000
v 0.033260 0.010000 0.013777
vn 0.000000 2.945243 -0.000000
v 0.039231 0.010000 0.007804
vn 0.000000 3.337942 -0.000000
v 0.035308 0.010000 0.007023
# 135 vertices, 0 vertices normals


usemtl material_0
f 1//1 2//2 3//3
f 1//1 3//3 4//4
f 1//1 4//4 5//5
f 1//1 5//5 6//6
f 1//1 6//6 7//7
f 1//1 7//7 8//8
f 1//1 8//8 9//9
f 1//1 9//9 10//10
f 1//1 10//10 11//11
f 1//1 11//11 12//12
f 1//1 12//12 13//13
f 1//1 13//13 14//14
f 1//1 14//14 15//15
f 1//1 15//15 16//16
f 1//1 16//16 17//17
f 1//1 17//17 18//18
f 1//1 18//18 19//19
f 1//1 19//19 20//20
f 1//1 20//20 21//21
f 1//1 21//21 22//22
f 1//1 22//22 23//23
f 1//1 23//23 24//24
f 1//1 24//24 25//25
f 1//1 25//25 26//26
f 1//1 26//26 27//27
f 1//1 27//27 28//28
f 1//1 28//28 29//29
f 1//1 29//29 30//30
f 1//1 30//30 31//31
f 1//1 31//31 32//32
f 1//1 32//32 33//33
f 1//1 33//33 34//34
f 1//1 34//34 35//35
f 1//1 35//35 36//36
f 1//1 36//36 37//37
f 1//1 37//37 2//2
f 1//1 38//38 39//39
f 1//1 39//39 40//40
f 1//1 40//40 41//41
f 1//1 41//41 42//42
f 1//1 42//42 43//43
f 1//1 43//43 44//44
f 1//1 44//44 45//45
f 1//1 45//45 46//46
f 1//1 46//46 47//47
f 1//1 47//47 48//48
f 1//1 48//48 49//49
f 1//1 49//49 50//50
f 1//1 50//50 51//51
f 1//1 51//51 52//52
f 1//1 52//52 53//53
f 1//1 53//53 54//54
f 1//1 54//54 55//55
f 1//1 55//55 56//56
f 1//1 56//56 57//57
f 1//1 57//57 58//58
f 1//1 58//58 59//59
f 1//1 59//59 60//60
f 1//1 60//60 61//61
f 1//1 61//61 62//62
f 1//1 62//62 63//63
f 1//1 63//63 64//64
f 1//1 64//64 65//65
f 1//1 65//65 66//66
f 1//1 66//66 67//67
f 1//1 67//67 68//68
f 1//1 68//68 69//69
f 1//1 69//69 70//70
f 1//1 70//70 71//71
f 1//1 71//71 72//72
f 1//1 72//72 73//73
f 1//1 73//73 38//38

usemtl material_1
f 2//2 75//75 38//38
f 74//74 75//75 2//2

usemtl material_2
f 74//74 77//77 75//75

usemtl material_1
f 76//76 77//77 74//74

usemtl material_3
f 76//76 79//79 77//77

usemtl material_1
f 78//78 79//79 76//76

usemtl material_4
f 78//78 81//81 79//79

usemtl material_1
f 80//80 81//81 78//78

usemtl material_5
f 80//80 83//83 81//81

usemtl material_1
f 82//82 83//83 80//80

usemtl material_6
f 82//82 85//85 83//83

usemtl material_1
f 84//84 85//85 82//82

usemtl material_7
f 84//84 87//87 85//85

usemtl material_1
f 86//86 87//87 84//84

usemtl material_8
f 86//86 89//89 87//87

usemtl material_1
f 88//88 89//89 86//86

usemtl material_9
f 88//88 91//91 89//89

usemtl material_1
f 90//90 91//91 88//88

usemtl material_10
f 90//90 93//93 91//91

usemtl material_1
f 92//92 93//93 90//90

usemtl material_11
f 92//92 95//95 93//93

usemtl material_1
f 94//94 95//95 92//92

usemtl material_12
f 94//94 97//97 95//95

usemtl material_1
f 96//96 97//97 94//94

usemtl material_13
f 96//96 99//99 97//97

usemtl material_1
f 98//98 99//99 96//96

usemtl material_14
f 98//98 101//101 99//99

usemtl material_1
f 100//100 101//101 98//98

usemtl material_15
f 100//100 103//103 101//101

usemtl material_1
f 102//102 103//103 100//100

usemtl material_16
f 102//102 105//105 103//103

usemtl material_1
f 104//104 105//105 102//102

usemtl material_17
f 104//104 107//107 105//105

usemtl material_1
f 106//106 107//107 104//104

usemtl material_18
f 106//106 109//109 107//107

usemtl material_1
f 108//108 109//109 106//106

usemtl material_19
f 108//108 111//111 109//109

usemtl material_1
f 110//110 111//111 108//108

usemtl material_20
f 110//110 113//113 111//111

usemtl material_1
f 112//112 113//113 110//110

usemtl material_21
f 112//112 115//115 113//113

usemtl material_1
f 114//114 115//115 112//112

usemtl material_22
f 114//114 117//117 115//115

usemtl material_1
f 116//116 117//117 114//114

usemtl material_23
f 116//116 119//119 117//117

usemtl material_1
f 118//118 119//119 116//116

usemtl material_24
f 118//118 121//121 119//119

usemtl material_1
f 120//120 121//121 118//118

usemtl material_25
f 120//120 123//123 121//121

usemtl material_1
f 122//122 123//123 120//120

usemtl material_26
f 122//122 125//125 123//123

usemtl material_1
f 124//124 125//125 122//122

usemtl material_27
f 124//124 127//127 125//125

usemtl material_1
f 126//126 127//127 124//124

usemtl material_28
f 126//126 129//129 127//127

usemtl material_1
f 128//128 129//129 126//126

usemtl material_29
f 128//128 131//131 129//129

usemtl material_1
f 130//130 131//131 128//128

usemtl material_30
f 130//130 133//133 131//131

usemtl material_1
f 132//132 133//133 130//130

usemtl material_31
f 132//132 135//135 133//133

usemtl material_1
f 134//134 135//135 132//132

usemtl material_32
f 134//134 38//38 135//135

usemtl material_1
f 2//2 38//38 134//134
# 136 faces, 0 coords texture

# End of File
