####
#
# OBJ File Generated by Meshlab
#
####
# Object Box_00004.obj
#
# Vertices: 24
# Faces: 28
#
####
mtllib ./Box_00004.obj.mtl

vn -0.577350 -0.577350 -0.577350
v -0.060000 -0.030000 -0.060000
vn 0.577350 -0.577350 -0.577350
v 0.060000 -0.030000 -0.060000
vn -0.707107 0.000000 -0.707107
v -0.060000 0.030000 -0.060000
vn 0.707107 0.000000 -0.707107
v 0.060000 0.030000 -0.060000
vn -0.577350 -0.577350 0.577350
v -0.060000 -0.030000 0.060000
vn 0.577350 -0.577350 0.577350
v 0.060000 -0.030000 0.060000
vn -0.707107 0.000000 0.707107
v -0.060000 0.030000 0.060000
vn 0.707107 0.000000 0.707107
v 0.060000 0.030000 0.060000
vn -0.577350 -0.577350 -0.577350
v -0.054000 -0.030000 -0.054000
vn 0.577350 -0.577350 -0.577350
v 0.054000 -0.030000 -0.054000
vn -0.707107 0.000000 -0.707107
v -0.054000 0.030000 -0.054000
vn 0.707107 0.000000 -0.707107
v 0.054000 0.030000 -0.054000
vn -0.577350 -0.577350 0.577350
v -0.054000 -0.030000 0.054000
vn 0.577350 -0.577350 0.577350
v 0.054000 -0.030000 0.054000
vn -0.707107 0.000000 0.707107
v -0.054000 0.030000 0.054000
vn 0.707107 0.000000 0.707107
v 0.054000 0.030000 0.054000
vn 0.000000 1.000000 -0.000000
v 0.059963 0.030000 0.059963
vn 0.000000 1.000000 -0.000000
v 0.053882 0.030000 0.053882
vn 0.000000 1.000000 -0.000000
v 0.059963 0.030000 -0.059963
vn 0.000000 1.000000 0.000000
v 0.053882 0.030000 -0.053882
vn 0.000000 1.000000 -0.000000
v -0.059963 0.030000 -0.059963
vn 0.000000 1.000000 -0.000000
v -0.053882 0.030000 -0.053882
vn 0.000000 1.000000 -0.000000
v -0.059963 0.030000 0.059963
vn 0.000000 1.000000 0.000000
v -0.053882 0.030000 0.053882
# 24 vertices, 0 vertices normals


usemtl material_0
f 3//3 2//2 1//1
f 2//2 3//3 4//4
f 5//5 3//3 1//1
f 3//3 5//5 7//7
f 2//2 5//5 1//1
f 5//5 2//2 6//6
f 7//7 6//6 8//8
f 6//6 7//7 5//5
f 6//6 4//4 8//8
f 4//4 6//6 2//2
f 11//11 10//10 9//9
f 10//10 11//11 12//12
f 13//13 11//11 9//9
f 11//11 13//13 15//15
f 10//10 13//13 9//9
f 13//13 10//10 14//14
f 15//15 14//14 16//16
f 14//14 15//15 13//13
f 14//14 12//12 16//16
f 12//12 14//14 10//10

usemtl material_1
f 17//17 20//20 18//18

usemtl material_2
f 19//19 20//20 17//17
f 19//19 22//22 20//20

usemtl material_3
f 21//21 22//22 19//19

usemtl material_2
f 21//21 24//24 22//22
f 23//23 24//24 21//21
f 23//23 18//18 24//24

usemtl material_4
f 17//17 18//18 23//23
# 28 faces, 0 coords texture

# End of File
